<svg preserveAspectRatio="none" width="100%" height="100%" overflow="visible" style="display: block;" viewBox="0 0 227.564 360.35" fill="none" xmlns="http://www.w3.org/2000/svg">
<g id="Group">
<path id="Vector" d="M225.321 112.688L182.32 92.584L182.512 76.7786C182.512 66.0653 173.412 57.0053 155.277 49.5986C142.652 44.5065 128.81 41.9273 113.814 41.9273C98.8181 41.9273 84.9759 44.5065 72.3513 49.5986C54.1513 57.2037 45.1154 66.2637 45.1154 76.7786V283.704C45.1154 294.417 54.2154 303.477 72.3513 310.884C84.9759 315.976 98.7541 318.555 113.814 318.555C128.874 318.555 142.652 315.976 155.277 310.884C173.412 303.279 182.512 294.219 182.512 283.704V227.889H184.755L227.564 248.787V283.638C227.564 312.008 210.517 333.501 176.424 348.05C157.327 356.25 136.436 360.35 113.814 360.35C91.1921 360.35 70.2365 356.25 51.2034 348.05C17.0464 333.501 0 312.008 0 283.638V76.7125C0 48.3421 17.0464 26.8494 51.1394 12.3005C70.2365 4.10015 91.0639 0 113.75 0C136.436 0 157.327 4.10015 176.36 12.3005C210.453 26.8494 227.5 48.3421 227.5 76.7125V112.688H225.257H225.321Z" fill="var(--fill-0, #132E35)"/>
<path id="Vector_2" d="M227.564 248.787C227.564 248.787 188.729 231.46 182.32 211.621L182.512 235.759L227.564 248.787Z" fill="var(--fill-0, #132E35)"/>
</g>
</svg>
