<svg preserveAspectRatio="none" width="100%" height="100%" overflow="visible" style="display: block;" viewBox="0 0 227.5 360.35" fill="none" xmlns="http://www.w3.org/2000/svg">
<g id="Group">
<path id="Vector" d="M2.24296 247.662L45.2436 267.766L45.0513 283.572C45.0513 294.285 54.1513 303.345 72.2872 310.752C84.9118 315.844 98.7541 318.423 113.75 318.423C128.746 318.423 142.588 315.844 155.212 310.752C173.412 303.147 182.448 294.087 182.448 283.572V76.7125C182.448 65.9992 173.348 56.9392 155.212 49.5325C142.588 44.4403 128.81 41.8612 113.75 41.8612C98.69 41.8612 84.9118 44.4403 72.2872 49.5325C54.1513 57.1376 45.0513 66.1976 45.0513 76.7125V132.527H42.8084L0 111.63V76.7786C0 48.4082 17.0464 26.9155 51.1393 12.3666C70.2365 4.10015 91.128 0 113.75 0C136.372 0 157.327 4.10015 176.36 12.3004C210.453 26.8494 227.5 48.3421 227.5 76.7125V283.638C227.5 312.008 210.453 333.501 176.36 348.05C157.263 356.25 136.436 360.35 113.75 360.35C91.0639 360.35 70.1724 356.25 51.1393 348.05C17.0464 333.501 0 312.008 0 283.638V247.662H2.24296Z" fill="var(--fill-0, #132E35)"/>
<path id="Vector_2" d="M4.1704e-06 111.564C4.1704e-06 111.564 38.8352 128.89 45.2436 148.73L45.0513 124.592L4.1704e-06 111.564Z" fill="var(--fill-0, #132E35)"/>
</g>
</svg>
